# xmcd CD database file
#
# Track frame offsets:
#	182
#	14305
#	32815
#	43832
#	57470
#	75707
#	91230
#	106487
#	117972
#	131532
#
# Disc length: 1950 seconds
#
# Revision: 4
# Processed by: cddbd v1.5.2PL0 Copyright (c) Steve Scherf et al.
# Submitted via: CDex 1.70beta2
#
DISCID=80079c0a
DTITLE=CHot80s(91) - USA - Cty - Country Hits Of The 80's
DYEAR=1991
DGENRE=Country
TTITLE0=Eddie Rabbitt - She's Coming Back To Say Goodbye
TTITLE1=Juice Newton - The Sweetest Thing
TTITLE2=Michael Martin Murphey - Will It Be Love By Morning
TTITLE3=T. Graham Brown - I Tell It Like It Used To Be
TTITLE4=Tanya Tucker - I'll Come Back As Another Woman
TTITLE5=Dan Seals - My Baby's Got Good Timing
TTITLE6=Sawyer Brown - Heart Don't Fall Now
TTITLE7=Mel McDaniel - Stand Up
TTITLE8=Lane Brody - Over You
TTITLE9=Don Williams - We've Got A Fire Goin'
EXTD=YEAR: 1991
EXTT0=
EXTT1=
EXTT2=
EXTT3=
EXTT4=
EXTT5=
EXTT6=
EXTT7=
EXTT8=
EXTT9=
PLAYORDER=
